<svg version="1.1" xmlns="http://www.w3.org/2000/svg" xmlns:xlink="http://www.w3.org/1999/xlink" viewBox="0 0 172 172"><g fill="none" fill-rule="nonzero" stroke="none" stroke-width="1" stroke-linecap="butt" stroke-linejoin="miter" stroke-miterlimit="10" stroke-dasharray="" stroke-dashoffset="0" font-family="none" font-weight="none" font-size="none" text-anchor="none" style="mix-blend-mode: normal"><path d="M0,172v-172h172v172z" fill="none"></path><g fill="#ffffff"><path d="M99.76,29.3475c-17.93906,0 -33.12344,10.73656 -40.42,25.9075c-3.88344,-2.67406 -8.385,-4.6225 -13.4375,-4.6225c-12.81937,0 -23.04531,10.14531 -23.7575,22.79c-12.81937,4.6225 -22.145,16.58188 -22.145,30.96c0,18.32875 14.88875,33.2175 33.2175,33.2175h108.145c16.8775,0 30.6375,-13.76 30.6375,-30.6375c0,-15.65469 -12.01312,-28.09781 -27.1975,-29.885c0.05375,-0.83312 0.215,-1.6125 0.215,-2.4725c0,-24.94 -20.3175,-45.2575 -45.2575,-45.2575zM99.76,36.2275c21.23125,0 38.3775,17.15969 38.3775,38.3775c0,1.57219 -0.12094,3.1175 -0.3225,4.73l-0.5375,3.87h4.085c13.15531,0 23.7575,10.60219 23.7575,23.7575c0,13.15531 -10.60219,23.7575 -23.7575,23.7575h-108.145c-14.62,0 -26.3375,-11.73094 -26.3375,-26.3375c0,-12.16094 8.19688,-22.40031 19.35,-25.4775l2.58,-0.645l-0.1075,-2.795c-0.01344,-0.48375 0,-0.72562 0,-0.7525c0,-9.55406 7.64594,-17.2 17.2,-17.2c4.78375,0 9.1375,1.92156 12.255,5.0525l3.7625,3.87l1.8275,-5.0525c5.41531,-14.62 19.47094,-25.155 36.0125,-25.155z"></path></g></g></svg>